# xmcd
# 
# Track frame offsets:
#     150
#     16437
#     33847
#     51875
#     332550
# 
# Disc length: 4440
# 
# Revision: 2
# Processed by: cddbd v1.5.2PL0 Copyright (c) Steve Scherf et al.
# Submitted via: fre:ac v1.0.17
# 
DISCID=37115605
DTITLE=Tommy heavenly6 - Wait till I can dream
DYEAR=2003
DGENRE=Rock
TTITLE0=Wait till I can dream
TTITLE1=Swear
TTITLE2=melancholy power++
TTITLE3=CCCD
TTITLE4=CCCD
EXTD=
EXTT0=
EXTT1=
EXTT2=
EXTT3=
EXTT4=
PLAYORDER=
